<?xml version="1.0" encoding="UTF-8" standalone="no"?>
<!DOCTYPE svg PUBLIC "-//W3C//DTD SVG 1.1//EN"
 "http://www.w3.org/Graphics/SVG/1.1/DTD/svg11.dtd">
<!-- Generated by graphviz version 2.40.1 (20161225.0304)
 -->
<!-- Title: demo Pages: 1 -->
<svg width="262pt" height="188pt"
 viewBox="0.00 0.00 261.94 188.00" xmlns="http://www.w3.org/2000/svg" xmlns:xlink="http://www.w3.org/1999/xlink">
<g id="graph0" class="graph" transform="scale(1 1) rotate(0) translate(4 184)">
<title>demo</title>
<polygon fill="#ffffff" stroke="transparent" points="-4,4 -4,-184 257.9441,-184 257.9441,4 -4,4"/>
<!-- Applications -->
<g id="node1" class="node">
<title>Applications</title>
<ellipse fill="none" stroke="#000000" cx="115.9475" cy="-162" rx="55.7903" ry="18"/>
<text text-anchor="middle" x="115.9475" y="-158.3" font-family="Times,serif" font-size="14.00" fill="#000000">Applications</text>
</g>
<!-- Kernel -->
<g id="node2" class="node">
<title>Kernel</title>
<ellipse fill="none" stroke="#000000" cx="115.9475" cy="-90" rx="34.394" ry="18"/>
<text text-anchor="middle" x="115.9475" y="-86.3" font-family="Times,serif" font-size="14.00" fill="#000000">Kernel</text>
</g>
<!-- Applications&#45;&gt;Kernel -->
<g id="edge1" class="edge">
<title>Applications&#45;&gt;Kernel</title>
<path fill="none" stroke="#000000" d="M115.9475,-143.8314C115.9475,-136.131 115.9475,-126.9743 115.9475,-118.4166"/>
<polygon fill="#000000" stroke="#000000" points="119.4476,-118.4132 115.9475,-108.4133 112.4476,-118.4133 119.4476,-118.4132"/>
</g>
<!-- CPU -->
<g id="node3" class="node">
<title>CPU</title>
<ellipse fill="none" stroke="#000000" cx="27.9475" cy="-18" rx="27.8951" ry="18"/>
<text text-anchor="middle" x="27.9475" y="-14.3" font-family="Times,serif" font-size="14.00" fill="#000000">CPU</text>
</g>
<!-- Kernel&#45;&gt;CPU -->
<g id="edge2" class="edge">
<title>Kernel&#45;&gt;CPU</title>
<path fill="none" stroke="#000000" d="M97.285,-74.7307C84.4638,-64.2406 67.2885,-50.1881 53.2399,-38.6937"/>
<polygon fill="#000000" stroke="#000000" points="55.342,-35.8915 45.3861,-32.2679 50.9093,-41.3092 55.342,-35.8915"/>
</g>
<!-- Memory -->
<g id="node4" class="node">
<title>Memory</title>
<ellipse fill="none" stroke="#000000" cx="115.9475" cy="-18" rx="42.4939" ry="18"/>
<text text-anchor="middle" x="115.9475" y="-14.3" font-family="Times,serif" font-size="14.00" fill="#000000">Memory</text>
</g>
<!-- Kernel&#45;&gt;Memory -->
<g id="edge3" class="edge">
<title>Kernel&#45;&gt;Memory</title>
<path fill="none" stroke="#000000" d="M115.9475,-71.8314C115.9475,-64.131 115.9475,-54.9743 115.9475,-46.4166"/>
<polygon fill="#000000" stroke="#000000" points="119.4476,-46.4132 115.9475,-36.4133 112.4476,-46.4133 119.4476,-46.4132"/>
</g>
<!-- Devices -->
<g id="node5" class="node">
<title>Devices</title>
<ellipse fill="none" stroke="#000000" cx="214.9475" cy="-18" rx="38.9931" ry="18"/>
<text text-anchor="middle" x="214.9475" y="-14.3" font-family="Times,serif" font-size="14.00" fill="#000000">Devices</text>
</g>
<!-- Kernel&#45;&gt;Devices -->
<g id="edge4" class="edge">
<title>Kernel&#45;&gt;Devices</title>
<path fill="none" stroke="#000000" d="M136.4604,-75.0816C150.6053,-64.7944 169.626,-50.9611 185.4001,-39.489"/>
<polygon fill="#000000" stroke="#000000" points="187.7491,-42.1084 193.7779,-33.3961 183.6319,-36.4473 187.7491,-42.1084"/>
</g>
</g>
</svg>
